<?xml version="1.0" encoding="UTF-8"?>
<!DOCTYPE svg  PUBLIC '-//W3C//DTD SVG 20010904//EN'  'http://www.w3.org/TR/2001/REC-SVG-20010904/DTD/svg10.dtd'>
<svg width="700pt" height="700pt" version="1.0" viewBox="0 0 700 700" xmlns="http://www.w3.org/2000/svg"><g transform="translate(0 700) scale(.1 -.1)"><path d="m5160 4969c-91-9-144-42-199-123-98-142-59-317 89-408 42-25 78-30 253-33l167-4v287 288l-127-1c-71 0-153-3-183-6z"/><path d="m5659 4976c-7-7-2-2595 5-2706 3-51 12-93 25-119 42-81 147-132 261-127 96 5 146 24 203 76 44 41 50 50 53 95 2 28 6 533 9 1124s8 1077 10 1080c6 6 77 9 305 12 211 2 286 16 345 61 49 37 98 107 112 158 23 84-9 185-84 266-78 83-37 78-673 82-311 2-568 1-571-2z"/><path d="m317 4964c-1-1-21-4-44-7-55-6-140-50-181-96-63-67-75-103-81-241-8-165-5-2188 3-2308 3-54 13-108 22-128 21-45 96-110 158-140l50-23 490 4c270 2 516 6 546 9 132 12 174 17 248 31 107 21 189 48 300 102 342 165 602 450 745 818 101 259 120 589 50 860-8 33-16 67-18 75-12 58-108 261-171 361-68 109-209 265-330 366-192 159-510 286-776 309-64 5-1005 13-1011 8zm1038-555c39 2 168-31 231-59 96-43 166-92 256-177 95-91 146-165 187-272 166-431 45-908-290-1138-89-62-253-130-354-148-67-12-245-18-520-19l-290-1-4 1826 382-7c210-3 391-6 402-5z"/><path d="m3749 4066c-2-2-40-6-84-10-113-9-140-14-227-42-263-83-494-283-606-524-73-156-97-275-96-475 1-105 6-149 27-226 76-290 262-521 527-654 84-42 213-88 280-99 43-7 305-8 343-1 15 3 37 7 50 9 154 28 325 113 447 222 116 103 190 196 244 304 86 172 116 293 116 473 2 438-281 830-700 971-81 27-102 31-200 41-36 4-77 9-91 10-15 2-28 2-30 1zm109-557c123-27 259-130 313-236 13-26 27-50 30-53 27-23 33-203 9-295-31-120-64-170-170-256-99-80-136-92-285-94-123-2-133 0-180 25-137 73-199 133-250 245-133 287 29 604 340 668 71 14 115 14 193-4z"/><path d="m5107 4055c-75-19-133-69-170-145-28-60-32-191-31-1e3 1-700 1-701 64-788 89-124 317-130 424-11 34 37 53 86 63 159 2 19 6 383 7 808l3 773-22 48c-48 102-125 155-237 163-32 2-77-1-101-7z"/></g></svg>
