<?xml version="1.0" encoding="utf-8"?>
<!-- Generator: Adobe Illustrator 26.1.0, SVG Export Plug-In . SVG Version: 6.00 Build 0)  -->
<svg version="1.1" id="Layer_1" xmlns="http://www.w3.org/2000/svg" xmlns:xlink="http://www.w3.org/1999/xlink" x="0px" y="0px"
	 viewBox="0 0 263.38 124.41" style="enable-background:new 0 0 263.38 124.41;" xml:space="preserve">
<style type="text/css">
	.st0{fill:#FFFFFF;}
	.st1{fill:#15162E;}
	.st2{fill:#E83967;}
</style>
<g>
	<path class="st0" d="M106.39,77.69c-5.76,0-10.44-4.69-10.44-10.44c0-5.75,4.69-10.44,10.44-10.44s10.44,4.69,10.44,10.44
		C116.83,73,112.15,77.69,106.39,77.69 M106.39,42.93c-13.41,0-24.32,10.91-24.32,24.32c0,13.41,10.91,24.32,24.32,24.32
		c13.41,0,24.32-10.91,24.32-24.32C130.71,53.84,119.8,42.93,106.39,42.93"/>
	<path class="st0" d="M218.09,60.31c-3.83,0-6.94,3.1-6.94,6.94c0,5.75-4.69,10.44-10.44,10.44c-5.76,0-10.44-4.69-10.44-10.44V56.8
		h12.11c3.83,0,6.94-3.1,6.94-6.94c0-3.83-3.1-6.94-6.94-6.94h-12.11V32.82c0-3.83-3.1-6.94-6.94-6.94c-3.83,0-6.94,3.1-6.94,6.94
		v34.43c0,5.75-4.69,10.44-10.44,10.44c-5.75,0-10.44-4.69-10.44-10.44V49.87c0-3.83-3.1-6.94-6.94-6.94c-3.83,0-6.94,3.1-6.94,6.94
		v17.38c0,13.41,10.91,24.32,24.32,24.32c6.8,0,12.97-2.81,17.38-7.34c4.41,4.52,10.58,7.34,17.38,7.34
		c13.41,0,24.32-10.91,24.32-24.32C225.03,63.41,221.93,60.31,218.09,60.31"/>
	<path class="st0" d="M142.17,35.47c0.17,0.42,0.39,0.82,0.63,1.2c0.25,0.38,0.54,0.74,0.86,1.06c0.32,0.32,0.68,0.61,1.06,0.87
		c0.37,0.25,0.77,0.46,1.2,0.63c0.41,0.17,0.86,0.31,1.3,0.39c0.44,0.1,0.9,0.14,1.35,0.14c1.83,0,3.61-0.74,4.91-2.03
		c0.32-0.32,0.61-0.68,0.87-1.06c0.24-0.37,0.46-0.77,0.63-1.2c0.17-0.41,0.31-0.86,0.4-1.3c0.1-0.44,0.13-0.9,0.13-1.35
		c0-0.45-0.04-0.91-0.13-1.36c-0.1-0.43-0.22-0.88-0.4-1.3c-0.17-0.42-0.39-0.82-0.63-1.19c-0.26-0.38-0.55-0.74-0.87-1.06
		c-1.62-1.62-4-2.35-6.25-1.9c-0.44,0.1-0.89,0.22-1.3,0.4c-0.42,0.17-0.82,0.39-1.2,0.63c-0.38,0.25-0.74,0.55-1.06,0.87
		c-0.32,0.32-0.61,0.68-0.86,1.06c-0.25,0.37-0.46,0.77-0.63,1.19c-0.17,0.42-0.31,0.86-0.39,1.3c-0.08,0.45-0.14,0.91-0.14,1.36
		c0,0.45,0.05,0.91,0.14,1.35C141.86,34.61,142,35.04,142.17,35.47"/>
	<g>
		<path class="st0" d="M78.13,66.69c0.12-13.09,0.05-20.06,0.03-33.15c-0.01-4.5-2.95-7.66-7.04-7.66c-4.06,0-7,3.19-7,7.68
			c0,5.66,0.03,5.21,0.04,11.19c-1-0.37-1.68-0.63-2.36-0.86c-11.75-4.11-24.7,1.25-30.13,12.46c-5.4,11.16-1.66,24.58,8.82,31.16
			c8.08,5.07,16.55,5.43,24.89,0.86C73.8,83.74,78.05,76.29,78.13,66.69z M46.09,74.18c-3.82-4.13-3.67-11.02,0.33-14.75
			c4.23-3.95,11.02-3.75,14.87,0.45c3.88,4.24,3.66,10.81-0.49,14.66C56.6,78.43,49.87,78.27,46.09,74.18z"/>
	</g>
</g>
</svg>
