<svg width="106" height="104" viewBox="0 0 106 104" fill="none" xmlns="http://www.w3.org/2000/svg">
<path fill-rule="evenodd" clip-rule="evenodd" d="M81.3128 48.2365L80.5604 44.4916C78.0296 31.8938 66.7123 22.3335 53 22.3335C42.126 22.3335 32.7178 28.3829 28.0455 37.1846L26.7967 39.5369L24.1479 39.8132C13.3029 40.9444 5 49.9344 5 60.6668C5 72.1594 14.552 81.6668 26.5 81.6668H83.9167C93.4355 81.6668 101 74.1094 101 65.0002C101 56.3208 94.1156 49.1061 85.1237 48.4953L81.3128 48.2365ZM53 17.3335C69.0767 17.3335 82.4592 28.5568 85.4625 43.5068C96.9458 44.2868 106 53.5602 106 65.0002C106 76.9602 96.1067 86.6668 83.9167 86.6668H26.5C11.8808 86.6668 0 75.0102 0 60.6668C0 47.2768 10.335 36.2268 23.6292 34.8402C29.15 24.4402 40.2358 17.3335 53 17.3335Z" fill="url(#paint0_linear_366_366)"/>
<path d="M64.1601 52.2592L69.0299 57.0371V44.5186H56.2706L61.1404 49.2965L52.2727 57.9968C51.4434 58.8105 50.1037 58.8105 49.2743 57.9968L46.7862 55.5557C44.2982 53.1146 40.2578 53.1146 37.7697 55.5557L26.499 66.6137L29.4974 69.5556L40.7469 58.5184C41.5762 57.7047 42.9159 57.7047 43.7453 58.5184L46.2333 60.9595C48.7214 63.4007 52.7618 63.4007 55.2499 60.9595L64.1601 52.2592Z" fill="url(#paint1_linear_366_366)"/>
<defs>
<linearGradient id="paint0_linear_366_366" x1="53" y1="17.3335" x2="53" y2="86.6668" gradientUnits="userSpaceOnUse">
<stop stop-color="#4E5395"/>
<stop offset="1" stop-color="#822269"/>
</linearGradient>
<linearGradient id="paint1_linear_366_366" x1="47.7645" y1="44.5186" x2="47.7645" y2="69.5556" gradientUnits="userSpaceOnUse">
<stop stop-color="#4E5395"/>
<stop offset="1" stop-color="#822269"/>
</linearGradient>
</defs>
</svg>
