<svg xmlns="http://www.w3.org/2000/svg" viewBox="0 0 64 64">
  <style>
    :root { --svg-color-base: #000433; --svg-color-accent: #FC3165; }
  </style>
  <g fill="var(--svg-color-base)">
    <path fill="var(--svg-color-accent)" d="M26 28a8 8 0 0 1-8-8 7.93 7.93 0 0 1 .588-2.954L7 17c-1.103 0-2 .897-2 2v24c0 1.103.897 2 2 2h42c1.103 0 2-.897 2-2V28z"/>
    <path d="M26 12h2c0-2.757 2.243-5 5-5V5c-3.86 0-7 3.141-7 7zm29 11h-2v2h2c2.206 0 4-1.794 4-4h-2c0 1.103-.897 2-2 2z"/>
    <path d="M55 13c-.075 0-.15.001-.226.004A8.989 8.989 0 0 0 46 6a9.038 9.038 0 0 0-3.386.661A11.003 11.003 0 0 0 33 1c-6.046 0-10.968 4.903-11 10.941A9.043 9.043 0 0 0 20.375 13H6c-2.757 0-5 2.243-5 5v30c0 2.757 2.243 5 5 5h10.612l-1.333 4H15c-2.757 0-5 2.243-5 5v1h36v-1c0-2.757-2.243-5-5-5h-.279l-1.333-4H50c2.757 0 5-2.243 5-5V29c4.411 0 8-3.589 8-8s-3.589-8-8-8zM43.829 61H12.171A3.006 3.006 0 0 1 15 59h26c1.304 0 2.416.836 2.829 2zm-5.217-4H17.388l1.333-4h18.558zM53 48c0 1.654-1.346 3-3 3H6c-1.654 0-3-1.346-3-3V18c0-1.654 1.346-3 3-3h12.528A8.957 8.957 0 0 0 17 20c0 4.963 4.038 9 9 9h13v4H25v2h16v-6h2v8H19v2h26V29h8zm2-21H26c-3.86 0-7-3.141-7-7a6.97 6.97 0 0 1 4.401-6.496l.668-.268-.053-.886c-.007-.116-.016-.232-.016-.35 0-4.963 4.038-9 9-9a9.003 9.003 0 0 1 8.239 5.387l.439.999.958-.524A7.01 7.01 0 0 1 46 8a6.99 6.99 0 0 1 6.951 6.201l.117 1.029 1.025-.153c.349-.053.637-.077.907-.077 3.309 0 6 2.691 6 6s-2.691 6-6 6z"/>
    <path d="M43 47h8v2h-8zm-4 0h2v2h-2zM21 20h2c0-1.654 1.346-3 3-3v-2c-2.757 0-5 2.243-5 5zm-8 15c-1.654 0-3 1.346-3 3s1.346 3 3 3 3-1.346 3-3-1.346-3-3-3zm0 4a1.001 1.001 0 0 1 0-2 1.001 1.001 0 0 1 0 2zm8-6h2v2h-2z"/>
  </g>
</svg>
