<svg viewBox="0 0 64 64" xmlns="http://www.w3.org/2000/svg">
  <style>
    :root { --svg-color-base: #000433; --svg-color-accent: #FC3165; }
  </style>
  <g fill="var(--svg-color-base)">
    <path fill="var(--svg-color-accent)" d="M12 46C5.935 46 1 41.065 1 35s4.935-11 11-11 11 4.935 11 11-4.935 11-11 11z"/>
    <path d="M1 61h2v2H1zm60 0h2v2h-2zM46 41h-6v20h-2V49h-6v12h-2v-6h-6v6h-2v-8h-6v8H5v2h54v-2H46zm-4 2h2v18h-2zm-8 8h2v10h-2zm-8 6h2v4h-2zm-8-2h2v6h-2zm5.74-41.333 1.885.667A11.02 11.02 0 0 1 36 7V5a13.022 13.022 0 0 0-12.26 8.667zm14.095-6.515c.62.104 1.236.263 1.832.474l.666-1.886a12.933 12.933 0 0 0-2.168-.561zM57 24c0 1.654-1.346 3-3 3v2c2.757 0 5-2.243 5-5z"/>
    <path d="M54 15c-.426 0-.847.039-1.263.098A16.947 16.947 0 0 0 36 1c-6.857 0-13.018 4.139-15.654 10.405A7.036 7.036 0 0 0 18 11c-2.773 0-5.27 1.672-6.381 4.154A9.002 9.002 0 0 0 10 15c-4.963 0-9 4.038-9 9 0 1.869.588 3.691 1.666 5.208.376-.604.808-1.167 1.29-1.686A6.994 6.994 0 0 1 3 24c0-3.86 3.141-7 7-7s7 3.14 7 7h2c0-3.701-2.247-6.886-5.448-8.267A5.024 5.024 0 0 1 18 13a5 5 0 0 1 2.416.624l1.039.575.39-1.121C23.941 7.05 29.63 3 36 3a14.952 14.952 0 0 1 14.792 12.592 8.989 8.989 0 0 0-2.745 1.658l1.324 1.499A6.988 6.988 0 0 1 54 17c3.859 0 7 3.14 7 7s-3.141 7-7 7h-4.276l1.454-10.179-17.3 2.472L38.586 28l-3 3h-13.35c.251.64.445 1.308.573 2h10.777L24 42.586l-2.336-2.336c-.327.599-.71 1.164-1.139 1.689L24 45.414 41.414 28l-3.293-3.293 10.7-1.528-1.528 10.7L44 30.586l-20 20-5-5-11 11L5.414 54l8.12-8.12c-.503.071-1.012.12-1.534.12-.45 0-.89-.035-1.326-.088L2.586 54 8 59.414l11-11 5 5 20-20 4.707 4.707.732-5.121H54c4.963 0 9-4.038 9-9s-4.037-9-9-9z"/>
    <path d="M5 24h2c0-1.654 1.346-3 3-3v-2c-2.757 0-5 2.243-5 5zm6 4v2H8v3c0 1.654 1.346 3 3 3h2c.552 0 1 .449 1 1v1h-3c-.552 0-1-.449-1-1H8c0 1.654 1.346 3 3 3v2h2v-2h3v-3c0-1.654-1.346-3-3-3h-2c-.552 0-1-.449-1-1v-1h3c.552 0 1 .449 1 1h2c0-1.654-1.346-3-3-3v-2zm16-11h2v2h-2zm8 0h2v2h-2zm-12 0h2v2h-2zm16 0h2v2h-2zm-8 0h2v2h-2z"/>
  </g>
</svg>
