<svg xmlns="http://www.w3.org/2000/svg" viewBox="0 0 263.38 124.41">
  <style>
    .st0{fill:#fff}
  </style>
  <path class="st0" d="M106.39 77.69c-5.76 0-10.44-4.69-10.44-10.44 0-5.75 4.69-10.44 10.44-10.44s10.44 4.69 10.44 10.44c0 5.75-4.68 10.44-10.44 10.44m0-34.76c-13.41 0-24.32 10.91-24.32 24.32s10.91 24.32 24.32 24.32 24.32-10.91 24.32-24.32-10.91-24.32-24.32-24.32m111.7 17.38c-3.83 0-6.94 3.1-6.94 6.94 0 5.75-4.69 10.44-10.44 10.44-5.76 0-10.44-4.69-10.44-10.44V56.8h12.11c3.83 0 6.94-3.1 6.94-6.94 0-3.83-3.1-6.94-6.94-6.94h-12.11v-10.1c0-3.83-3.1-6.94-6.94-6.94-3.83 0-6.94 3.1-6.94 6.94v34.43c0 5.75-4.69 10.44-10.44 10.44-5.75 0-10.44-4.69-10.44-10.44V49.87c0-3.83-3.1-6.94-6.94-6.94-3.83 0-6.94 3.1-6.94 6.94v17.38c0 13.41 10.91 24.32 24.32 24.32a24.2 24.2 0 0 0 17.38-7.34c4.41 4.52 10.58 7.34 17.38 7.34 13.41 0 24.32-10.91 24.32-24.32 0-3.84-3.1-6.94-6.94-6.94m-75.92-24.84c.17.42.39.82.63 1.2.25.38.54.74.86 1.06.32.32.68.61 1.06.87.37.25.77.46 1.2.63.41.17.86.31 1.3.39.44.1.9.14 1.35.14 1.83 0 3.61-.74 4.91-2.03.32-.32.61-.68.87-1.06.24-.37.46-.77.63-1.2.17-.41.31-.86.4-1.3.1-.44.13-.9.13-1.35 0-.45-.04-.91-.13-1.36-.1-.43-.22-.88-.4-1.3-.17-.42-.39-.82-.63-1.19-.26-.38-.55-.74-.87-1.06a6.98 6.98 0 0 0-6.25-1.9c-.44.1-.89.22-1.3.4-.42.17-.82.39-1.2.63a6.818 6.818 0 0 0-1.92 1.93c-.25.37-.46.77-.63 1.19-.17.42-.31.86-.39 1.3-.08.45-.14.91-.14 1.36 0 .45.05.91.14 1.35.07.44.21.87.38 1.3M78.13 66.69c.12-13.09.05-20.06.03-33.15-.01-4.5-2.95-7.66-7.04-7.66-4.06 0-7 3.19-7 7.68 0 5.66.03 5.21.04 11.19-1-.37-1.68-.63-2.36-.86-11.75-4.11-24.7 1.25-30.13 12.46-5.4 11.16-1.66 24.58 8.82 31.16 8.08 5.07 16.55 5.43 24.89.86 8.42-4.63 12.67-12.08 12.75-21.68zm-32.04 7.49c-3.82-4.13-3.67-11.02.33-14.75 4.23-3.95 11.02-3.75 14.87.45 3.88 4.24 3.66 10.81-.49 14.66-4.2 3.89-10.93 3.73-14.71-.36z"/>
</svg>
