<svg xmlns="http://www.w3.org/2000/svg" viewBox="0 0 129.3 129.3">
  <style>
    .st2{fill:#fc3165}
  </style>
  <path class="st2" d="M118.6 54.4c3.8 3.9 3.7 10.1-.3 14-3.9 3.8-10.3 3.8-14.1-.1-3.7-3.9-3.6-10.4.3-14.1 4-3.9 10.2-3.8 14.1.2zM91.8 80.3c.2-18.6.1-37.1 0-55.7 0-6.4-4.2-10.9-10-10.9s-9.9 4.5-9.9 10.9c0 8 0 16.1.1 24.5-1.4-.5-2.4-.9-3.3-1.2C52 42.1 33.6 49.7 26 65.6c-7.7 15.8-2.4 34.9 12.5 44.2C50 117 62 117.5 73.8 111c11.8-6.5 17.8-17.1 18-30.7zM46.3 90.9c-5.4-5.9-5.2-15.6.5-20.9 6-5.6 15.6-5.3 21.1.6 5.5 6 5.2 15.3-.7 20.8-6 5.5-15.5 5.3-20.9-.5z"/>
</svg>
