<svg xmlns="http://www.w3.org/2000/svg" viewBox="0 0 1000 1000">
  <style>

    /*
    @media (prefers-color-scheme: dark) {
      path { fill: #fff; }
    }
    */

  </style>
  <path fill="#1c1e21" d="M500 12.3805C223.75 12.3805 0 236.256 0 512.381c0 220.958 143.25 408.333 341.875 474.375 25 4.708 34.167-10.75 34.167-24.042 0-11.875-.417-43.333-.625-85C236.333 907.881 207 810.631 207 810.631c-22.75-57.709-55.625-73.125-55.625-73.125-45.292-31 3.5-30.375 3.5-30.375 50.208 3.5 76.583 51.5 76.583 51.5 44.584 76.458 117.042 54.375 145.625 41.583 4.5-32.333 17.375-54.375 31.667-66.875-111.042-12.5-227.75-55.5-227.75-247.083 0-54.584 19.375-99.167 51.458-134.167-5.625-12.625-22.5-63.458 4.375-132.333 0 0 41.875-13.417 137.5 51.25 40-11.125 82.5-16.625 125-16.875 42.5.25 85 5.75 125 16.875 95-64.667 136.875-51.25 136.875-51.25 26.875 68.875 10 119.708 5 132.333 31.875 35 51.25 79.583 51.25 134.167 0 192.083-116.875 234.375-228.125 246.666 17.5 15 33.75 45.667 33.75 92.5 0 66.917-.625 120.667-.625 136.917 0 13.125 8.75 28.75 34.375 23.75C856.875 920.505 1000 733.005 1000 512.381c0-276.125-223.875-500.0005-500-500.0005"/>
</svg>
