<svg width="106" height="104" fill="none" viewBox="0 0 106 104" xmlns="http://www.w3.org/2000/svg"><path d="m81.313 48.236-0.7524-3.7449c-2.5308-12.598-13.848-22.158-27.56-22.158-10.874 0-20.282 6.0494-24.954 14.851l-1.2488 2.3523-2.6488 0.2763c-10.845 1.1312-19.148 10.121-19.148 20.854 0 11.493 9.552 21 21.5 21h57.417c9.5188 0 17.083-7.5574 17.083-16.667 0-8.6794-6.8844-15.894-15.876-16.505l-3.8109-0.2588zm-28.313-30.903c16.077 0 29.459 11.223 32.462 26.173 11.483 0.78 20.538 10.053 20.538 21.493 0 11.96-9.8933 21.667-22.083 21.667h-57.417c-14.619 0-26.5-11.657-26.5-26 0-13.39 10.335-24.44 23.629-25.827 5.5208-10.4 16.607-17.507 29.371-17.507z" clip-rule="evenodd" fill="url(#paint0_linear_366_366)" fill-rule="evenodd"/><path d="m64.16 52.259 4.8698 4.7779v-12.518h-12.759l4.8698 4.7779-8.8677 8.7003c-0.8293 0.8137-2.169 0.8137-2.9984 0l-2.4881-2.4411c-2.488-2.4411-6.5284-2.4411-9.0165 0l-11.271 11.058 2.9984 2.9419 11.25-11.037c0.8293-0.8137 2.169-0.8137 2.9984 0l2.488 2.4411c2.4881 2.4412 6.5285 2.4412 9.0166 0l8.9102-8.7003z" fill="url(#paint1_linear_366_366)"/><defs><linearGradient id="paint0_linear_366_366" x1="53" x2="53" y1="17.334" y2="86.667" gradientUnits="userSpaceOnUse"><stop stop-color="#4E5395" offset="0"/><stop stop-color="#822269" offset="1"/></linearGradient><linearGradient id="paint1_linear_366_366" x1="47.764" x2="47.764" y1="44.519" y2="69.556" gradientUnits="userSpaceOnUse"><stop stop-color="#4E5395" offset="0"/><stop stop-color="#822269" offset="1"/></linearGradient></defs></svg>
