<svg viewBox="0 0 324.65 324.65" xmlns="http://www.w3.org/2000/svg"><g id="doit-logo-black" fill-rule="evenodd"><path d="m253.71 93.842h-6s-8.17-0.12-9.75 0.22c-5.59 1.22-10.6 7.6402-10.6 13.29 0 3.09 0.88 10 10.6 13.12h15.75v-26.63zm-87.049 136.57c-12.388-1.957-23.505-8.72-30.94-18.82-6.075-8.122-9.264-18.04-9.06-28.18 0-21.81 13.43-39.36 35-45.78 4.39-1.3 14.56-1.8 19.84-1 17.925 2.936 32.624 15.802 37.909 33.18 2.74 9.68 2.81 18.05 0 27.13-4.778 16.116-17.701 28.518-33.999 32.63-6.173 1.383-12.541 1.66-18.81 0.82l0.06 0.02zm14.06-25.67c5.283-1.792 9.768-5.385 12.669-10.15 2.87-5.09 3.68-12.55 1.93-17.88-2.201-6.709-7.425-11.995-14.107-14.277s-14.047-1.294-19.892 2.667c-6.955 4.961-10.495 13.436-9.135 21.869 1.36 8.434 7.384 15.367 15.545 17.891 3 1 10 0.9 13-0.12h-0.01zm54.099 25.06c-1.598-0.788-3.049-1.843-4.29-3.12-3.41-3.89-3.28-8.73-3.28-43.44 0-33.86-0.09-38.59 2.85-42.43 1.092-1.277 2.382-2.371 3.82-3.24 2.15-1.26 3-1.45 6.68-1.45s4.48 0.16 6.78 1.59c3.324 1.984 5.54 5.396 6 9.24 0.31 2 0.36 3.36 0.36 38.65 0 32.37 0.06 37.19-3.31 41.19s-10.42 5.43-15.63 3l0.02 0.01zm35.67 0.51c-3.059-1.024-5.617-3.168-7.16-6-1.11-2.4-0.89-7.61-1-31.49v-99.06h12.92s37.229-0.34 38.809 0c5.59 1.22 10.59 7.6402 10.59 13.28-0.249 3.614-1.895 6.989-4.59 9.41-3.81 3.15-4.72 3.49-15.76 3.79h-16v73c0 24.47 0.25 29.74-0.85 31.83-1.376 2.238-3.448 3.963-5.9 4.91-3.571 1.28-7.456 1.399-11.099 0.34l0.04-0.01z"/><path d="m9.3235 230.26c-1.8741-0.851-3.5705-2.049-5-3.53-4.6099-4.61-4.3199-0.33-4.3199-63.55 0-60.23-0.059999-58.62 2.92-62.78 2.2006-2.8708 5.3341-4.8832 8.8599-5.6902 3.49-0.74 41.49-0.78 49.269 0 29.167 2.5137 53.539 23.229 60.719 51.61 8.44 33.44-10.4 68.54-43.289 80.64-9.5198 3.5-22.23 3.79-45.649 4-8.44-0.13-18.4 0.56-23.51-0.67l1e-5 -0.03zm49.509-26.22c15.7-1.3 27.88-9 34.29-21.76s5.9399-30.55-1.06-43.21c-2.84-5.13-9.6799-11.74-15-14.49-7.78-4-9.9399-4.7-26.23-4.68l-24.29-0.23v84.55c0.51 0.51 25.36 0.39 32.29-0.18z"/></g></svg>
