<svg xmlns="http://www.w3.org/2000/svg" viewBox="0 0 324.65 324.65">
  <path fill-rule="evenodd" d="M253.71 93.842h-6s-8.17-.12-9.75.22c-5.59 1.22-10.6 7.64-10.6 13.29 0 3.09.88 10 10.6 13.12h15.75v-26.63zm-87.049 136.57a47.654 47.654 0 0 1-30.94-18.82 45.52 45.52 0 0 1-9.06-28.18c0-21.81 13.43-39.36 35-45.78 4.39-1.3 14.56-1.8 19.84-1a47.679 47.679 0 0 1 37.909 33.18c2.74 9.68 2.81 18.05 0 27.13a47.61 47.61 0 0 1-33.999 32.63 53.522 53.522 0 0 1-18.81.82l.06.02zm14.06-25.67a23.773 23.773 0 0 0 12.669-10.15c2.87-5.09 3.68-12.55 1.93-17.88a22.499 22.499 0 0 0-33.999-11.61 22.468 22.468 0 0 0 6.41 39.76c3 1 10 .9 13-.12h-.01zm54.099 25.06a15.605 15.605 0 0 1-4.29-3.12c-3.41-3.89-3.28-8.73-3.28-43.44 0-33.86-.09-38.59 2.85-42.43a15.734 15.734 0 0 1 3.82-3.24c2.15-1.26 3-1.45 6.68-1.45s4.48.16 6.78 1.59a12.488 12.488 0 0 1 6 9.24c.31 2 .36 3.36.36 38.65 0 32.37.06 37.19-3.31 41.19s-10.42 5.43-15.63 3l.02.01zm35.67.51a12.77 12.77 0 0 1-7.16-6c-1.11-2.4-.89-7.61-1-31.49v-99.06h12.92s37.229-.34 38.809 0c5.59 1.22 10.59 7.64 10.59 13.28a13.937 13.937 0 0 1-4.59 9.41c-3.81 3.15-4.72 3.49-15.76 3.79h-16v73c0 24.47.25 29.74-.85 31.83a12.001 12.001 0 0 1-5.9 4.91 18.003 18.003 0 0 1-11.099.34l.04-.01zM9.323 230.26a16.339 16.339 0 0 1-5-3.53c-4.61-4.61-4.32-.33-4.32-63.55 0-60.23-.06-58.62 2.92-62.78a15.529 15.529 0 0 1 8.86-5.69c3.49-.74 41.49-.78 49.27 0 29.166 2.514 53.538 23.229 60.718 51.61 8.44 33.44-10.4 68.54-43.288 80.64-9.52 3.5-22.23 3.79-45.65 4-8.44-.13-18.4.56-23.51-.67v-.03zm49.51-26.22c15.7-1.3 27.88-9 34.29-21.76s5.94-30.55-1.06-43.21c-2.84-5.13-9.68-11.74-15-14.49-7.78-4-9.94-4.7-26.23-4.68l-24.29-.23v84.55c.51.51 25.36.39 32.29-.18z"/>
</svg>
