<svg xmlns="http://www.w3.org/2000/svg" width="512" height="512" viewBox="0 0 512 512">
  <path d="M359.5 166.9c-6.9.7-9.3 1.9-12.8 6.1-5.3 6.2-5.9 13.7-1.7 20.6 3.6 5.8 8.2 7.4 21 7.4h11l-.2-17.3-.3-17.2-5.5-.1c-3-.1-8.2.2-11.5.5zm28.7 84.5c.3 85.1.3 85.5 2.4 88.3 6.4 8.6 21.7 9.3 28.9 1.3 1.9-2.2 2-4 2.5-70.9l.5-68.6 17-.6c9.4-.3 18.1-1 19.5-1.6 4.3-1.8 9.7-8.6 10.5-13.1 1.4-8.4-5.6-17.9-14.2-19.3-2.6-.4-18.9-.8-36.1-.8L388 166l.2 85.4zM57.8 167.9c-5.3 1.7-9.9 5.3-12.1 9.5l-2.2 4.1v76c0 74.8 0 76.1 2 79.5 1.2 1.9 4 4.8 6.4 6.5l4.3 3 18.2.4c24.9.4 56.1-1.3 65.8-3.8 14.4-3.7 30.4-13.4 40.8-24.8 9.9-10.8 16.1-21.5 20.4-35.1 15.4-48.9-13.9-100.4-64.5-113.3-7.6-1.9-11.7-2.2-42.4-2.5-18.7-.2-35.2.1-36.7.5zm66.2 33.5c12.6.5 22.5 5.2 32.3 15.2 9.7 9.8 13.6 19.6 14.4 35.9.4 8.1.1 12.8-1.1 17.8-4.6 19.4-18.6 33.9-38.1 39.1-4.3 1.2-12.6 1.8-29.7 2.3l-23.8.6V200.2l18.8.4c10.3.2 22.5.6 27.2.8zm137.2 21.7c-21.5 3.3-40.6 19.2-47.9 40-3.5 9.8-4.3 26.3-1.9 35.9 2.9 11.4 8.1 20.6 16.5 29 8.2 8.1 15.4 12.5 26.4 16 5.9 1.9 8.4 2.1 19.5 1.8 18.9-.6 29.2-5 42.2-18.1 23.9-24 23.9-62.6 0-86.8-14.5-14.6-34.1-21-54.8-17.8zm22.5 34.9c5.8 2.5 10.5 6.9 14.1 13 2.3 3.9 2.7 5.6 2.7 12.5 0 10.6-3.3 17.8-10.8 23.5-7 5.2-9.5 6-18.6 6-7.4 0-8.1-.2-14-4-12.3-7.9-17.2-21.9-12.2-34.9C251 258 267.8 251 283.7 258zm67.8-34.2c-6.4 4.1-7.7 6.5-8.6 15.4-1.2 12.8-1.1 87.9.2 93.7 1.9 8.9 7.4 13.4 16.5 13.4 5.9 0 10.5-2.2 13.8-6.6 2.1-2.8 2.1-3.8 2.4-54.6l.3-51.7-2.3-3.4c-3.7-5.4-7.1-7.3-13.5-7.7-4.5-.3-6.5 0-8.8 1.5z"/>
</svg>
