<svg version="1.0" xmlns="http://www.w3.org/2000/svg" width="933.333" height="933.333" viewBox="0 0 700 700">
  <path d="M434 74.7c-16.3 2.5-30.4 13.2-37.9 28.8-6.8 14-6.6 11.4-6.6 90.6l.1 71.7-8.1-3c-15.9-5.9-28.1-9.2-45.5-12.3-7.9-1.5-41.5-1.4-51.5 0-14.3 2.1-33.4 7.1-44 11.5-45.9 19.2-79.3 50.7-99.9 94.3-9.7 20.3-15.1 38.2-17.1 56.2-.4 2.8-.8 6.1-1.1 7.5-.2 1.4-.4 8.3-.5 15.5-.1 31.8 6.7 60.3 20.8 87.4 21.1 40.8 55.2 70.9 101.4 89.6 22.3 9 42.2 12.9 65.9 12.8 23.9 0 45.4-4.6 69-14.5 55.7-23.4 93.9-64.7 109.6-118.3 2.6-8.8 2.8-9.7 4.9-21 3.6-20 3.7-23.7 3.9-163 .1-124.2-.4-184.8-1.6-189-.3-1.1-1.1-4-1.8-6.5-4.3-16.3-17.9-30.7-34-36-6.2-2.1-19.6-3.2-26-2.3zM325.5 358.8c6.4 1.4 14.9 4.4 20.5 7.2 19.5 9.9 36.3 31.4 40.5 51.6.3 1.6.9 4.2 1.3 5.9.8 4 .7 23-.2 28-1.7 9.3-6.6 21.4-12 29.5-4.5 6.8-17.3 19-24.2 23.1-24.7 14.7-54.2 16.1-78.9 4-27.3-13.5-43.9-42.3-42.9-74.7.2-7.9 3.6-24.6 5.3-26.8.5-.6 1.2-2.2 1.6-3.5 1.4-4.6 7.7-14.2 13.2-20.2 12-12.9 29-22 46.5-24.7 6.7-1.1 22.8-.7 29.3.6zm270.4-80.4c-.2.2-2.2.7-4.4 1-5.1.8-15.1 5.5-20.7 9.7-4.8 3.6-12.4 12.3-15 17.2-3 5.5-5.7 15.9-6.1 23.1-1.8 35.5 28.4 61.7 63.6 55 20.4-3.9 38.3-21.6 42.6-42.2 5.8-28-12.3-56-40.5-62.7-5.4-1.3-18.5-2-19.5-1.1z"/>
</svg>
