<svg width="512pt" height="512pt" version="1.0" viewBox="0 0 512 512" xmlns="http://www.w3.org/2000/svg"><g transform="translate(0 512) scale(.1 -.1)"><path d="m3595 3451c-69-7-93-19-128-61-53-62-59-137-17-206 36-58 82-74 210-74h110l-2 173-3 172-55 1c-30 1-82-2-115-5z"/><path d="m3882 2606c3-851 3-855 24-883 64-86 217-93 289-13 19 22 20 40 25 709l5 686 170 6c94 3 181 10 195 16 43 18 97 86 105 131 14 84-56 179-142 193-26 4-189 8-361 8l-312 1 2-854z"/><path d="m578 3441c-53-17-99-53-121-95l-22-41v-760c0-748 0-761 20-795 12-19 40-48 64-65l43-30 182-4c249-4 561 13 658 38 144 37 304 134 408 248 99 108 161 215 204 351 154 489-139 1004-645 1133-76 19-117 22-424 25-187 2-352-1-367-5zm662-335c126-5 225-52 323-152 97-98 136-196 144-359 4-81 1-128-11-178-46-194-186-339-381-391-43-12-126-18-297-23l-238-6v560 561l188-4c103-2 225-6 272-8z"/><path d="m2612 2889c-215-33-406-192-479-400-35-98-43-263-19-359 29-114 81-206 165-290 82-81 154-125 264-160 59-19 84-21 195-18 189 6 292 50 422 181 239 240 239 626 0 868-145 146-341 210-548 178zm225-349c58-25 105-69 141-130 23-39 27-56 27-125 0-106-33-178-108-235-70-52-95-60-186-60-74 0-81 2-140 40-123 79-172 219-122 349 61 161 229 231 388 161z"/><path d="m3515 2882c-64-41-77-65-86-154-12-128-11-879 2-937 19-89 74-134 165-134 59 0 105 22 138 66 21 28 21 38 24 546l3 517-23 34c-37 54-71 73-135 77-45 3-65 0-88-15z"/></g></svg>
