<svg xmlns="http://www.w3.org/2000/svg" width="106" height="104" fill="none" viewBox="0 0 106 104">
  <path fill="url(#a)" fill-rule="evenodd" d="m81.313 48.236-.752-3.745C78.03 31.893 66.713 22.333 53 22.333c-10.874 0-20.282 6.05-24.954 14.851l-1.25 2.352-2.648.277C13.303 40.943 5 49.933 5 60.667c0 11.493 9.552 21 21.5 21h57.417C93.436 81.667 101 74.109 101 65c0-8.68-6.884-15.894-15.876-16.505l-3.81-.26zM53 17.333c16.077 0 29.459 11.223 32.462 26.173C96.945 44.286 106 53.559 106 64.999c0 11.96-9.893 21.667-22.083 21.667H26.5c-14.619 0-26.5-11.657-26.5-26 0-13.39 10.335-24.44 23.629-25.827 5.52-10.4 16.607-17.507 29.371-17.507z" clip-rule="evenodd"/>
  <path fill="url(#b)" d="m64.16 52.259 4.87 4.778V44.519H56.27l4.87 4.778-8.867 8.7a2.147 2.147 0 0 1-2.999 0l-2.488-2.441c-2.488-2.441-6.528-2.441-9.016 0L26.499 66.614l2.998 2.942 11.25-11.037a2.147 2.147 0 0 1 2.999 0l2.488 2.441c2.488 2.441 6.528 2.441 9.016 0l8.91-8.7z"/>
  <defs>
    <linearGradient id="a" x1="53" x2="53" y1="17.334" y2="86.667" gradientUnits="userSpaceOnUse">
      <stop offset="0" stop-color="#3B40B5"/>
      <stop offset="1" stop-color="#852DD3"/>
    </linearGradient>
    <linearGradient id="b" x1="47.764" x2="47.764" y1="44.519" y2="69.556" gradientUnits="userSpaceOnUse">
      <stop offset="0" stop-color="#3B40B5"/>
      <stop offset="1" stop-color="#852DD3"/>
    </linearGradient>
  </defs>
</svg>
