<svg xmlns="http://www.w3.org/2000/svg" viewBox="0 0 1000 1000">
  <style>

    /*
    @media (prefers-color-scheme: dark) {
      path { fill: #1c1e21; }
    }
    */

  </style>
  <path fill="#fff" d="M781.49 289.058h-18.481s-25.166-.37-30.033.677c-17.218 3.758-32.65 23.534-32.65 40.937 0 9.518 2.71 30.802 32.65 40.413h48.514v-82.027ZM513.358 709.727c-38.159-6.028-72.402-26.859-95.303-57.97-18.713-25.018-28.536-55.568-27.907-86.801 0-67.181 41.367-121.239 107.808-141.014 13.523-4.005 44.849-5.545 61.112-3.08 55.214 9.043 100.491 48.674 116.77 102.202 8.44 29.817 8.655 55.599 0 83.567-14.718 49.642-54.524 87.843-104.726 100.509-19.014 4.26-38.629 5.113-57.939 2.526l.185.061Zm43.308-79.07c16.273-5.519 30.088-16.587 39.024-31.264 8.84-15.679 11.335-38.657 5.944-55.075-6.779-20.665-22.87-36.948-43.453-43.977-20.582-7.029-43.268-3.986-61.272 8.215-21.423 15.281-32.327 41.386-28.138 67.362 4.189 25.979 22.744 47.334 47.882 55.109 9.241 3.08 30.803 2.772 40.044-.37h-.031Zm166.638 77.191c-4.922-2.427-9.391-5.677-13.214-9.61-10.504-11.982-10.103-26.891-10.103-133.806 0-104.297-.277-118.867 8.778-130.695 3.364-3.934 7.338-7.303 11.767-9.98 6.623-3.881 9.241-4.466 20.576-4.466s13.8.492 20.884 4.897c10.239 6.111 17.065 16.621 18.482 28.462.955 6.16 1.109 10.349 1.109 119.051 0 99.708.184 114.555-10.196 126.876-10.38 12.321-32.096 16.726-48.144 9.241l.061.03Zm109.873 1.571c-9.423-3.154-17.302-9.758-22.055-18.481-3.419-7.393-2.741-23.441-3.08-96.997v-305.13h39.797s114.674-1.047 119.541 0c17.219 3.758 32.62 23.534 32.62 40.906-.767 11.132-5.837 21.528-14.138 28.985-11.736 9.703-14.539 10.75-48.545 11.674h-49.284v224.858c0 75.374.77 91.607-2.618 98.045-4.239 6.893-10.621 12.207-18.174 15.124-10.999 3.943-22.966 4.309-34.187 1.047l.123-.031Zm-804.4582-.16c-5.7727-2.621-10.9981-6.311-15.4013-10.873C-.882116 684.186.0111563 697.369.0111563 502.636c0-185.523-.1848123-180.564 8.9943337-193.378 6.77841-8.843 16.43031-15.042 27.29071-17.527 10.7501-2.28 127.7998-2.403 151.7608 0 89.842 7.742 164.913 71.551 187.03 158.971 25.997 103.004-32.035 211.121-133.341 248.392-29.324 10.781-68.474 11.674-140.611 12.321-25.9969-.401-56.6761 1.725-72.4162-2.064v-.093.001Zm152.5002-80.764c48.36-4.004 85.877-27.722 105.622-67.026 19.744-39.304 18.296-94.102-3.265-133.098-8.748-15.802-29.817-36.162-46.204-44.633-23.965-12.321-30.618-14.477-80.795-14.415l-74.8194-.709v260.435c1.5709 1.571 78.1154 1.202 99.4614-.554Z"/>
</svg>
